<svg id="es8ho0CFyKe1" xmlns="http://www.w3.org/2000/svg" xmlns:xlink="http://www.w3.org/1999/xlink" viewBox="0 0 1440 320" shape-rendering="geometricPrecision" text-rendering="geometricPrecision"><g transform="translate(.040161 0)" clip-path="url(#es8ho0CFyKe6)"><g><path d="M0,0h1440v320L0,320L0,0Z" fill="#e6f3f3"/><path d="M-676,-182c222,172,279.137,253.888,478.5,325.5c98.5,35.382,160.581,27.226,192.749,26.608c104.487-2.01,204.609-43.237,298.633-85.495c38.354-17.238,75.882-36.189,112.063-57.63c23.903-14.165,58.87-33.913,64.721-64.42c2.32-12.102-16.369-12.24-23.771-9.789-13.511,4.474-25.95,16.544-36.056,25.669-19.131,17.273-37.062,35.948-53.235,56.031-33.728,41.883-68.034,100.247-34.158,152.014c17.287,26.415,43.94,45.693,72.112,59.127c56.182,26.791,119.205,38.742,180.778,44.146C740.774,304.193,905.3,286.3,1059.34,226.139c79.76-31.148,158.55-70.539,224.23-126.245c48.56-41.186,102.8-96.548,110.66-162.9c10.93-92.187-94.04-136.062-169.29-148.418-61.41-10.084-123.75-4.164-184.07,9.588-78.262,17.84-149.006,47.67-214.241,94.384-130.002,93.093-234.95,228.413-272.466,385.827-15.64,65.625-16.648,138.21,5.493,202.551c21.452,62.338,69.196,110.576,124.048,144.923c65.117,40.774,137.161,62.14,212.839,73.21c100.474,14.696,202.817,12.233,303.027-2.997c176.17-26.772,352.73-88.431,505.18-181.077c103.22-62.725,199.3-134.15,280.06-224.425c17.7-19.793,31.81-40.875,43.74-64.521C2172.11,-58.5,2095.5,-145.528,2095.5,-151" fill="none" stroke="#31d35c" stroke-width="3" stroke-linecap="round"/></g><clipPath id="es8ho0CFyKe6"><path d="M0,0h1440v320L0,320L0,0Z" fill="#fff"/></clipPath></g></svg>
