<svg id="e7SIhaZMnkR1" xmlns="http://www.w3.org/2000/svg" xmlns:xlink="http://www.w3.org/1999/xlink" viewBox="0 0 30 31" shape-rendering="geometricPrecision" text-rendering="geometricPrecision" width="30" height="31"><defs><radialGradient id="e7SIhaZMnkR2-fill" cx="0" cy="0" r="0.5" spreadMethod="pad" gradientUnits="objectBoundingBox" gradientTransform="matrix(0.86342 -0.504485 0.504485 0.86342 0.874795 0.328187)"><stop id="e7SIhaZMnkR2-fill-0" offset="0%" stop-color="#2bb7da"/><stop id="e7SIhaZMnkR2-fill-1" offset="100%" stop-color="#31d35c"/></radialGradient></defs><path d="M15,3.313C8.269436,3.313552,2.813632,8.770103,2.814,15.500667s5.456769,12.186517,12.187333,12.186333s12.186667-5.456436,12.186667-12.187C27.179735,8.77218,21.72782,3.320265,15,3.312v.001Zm4.688,13.124h-3.75v3.75c0,.518043-.419957.938-.938.938s-.938-.419957-.938-.938v-3.75h-3.75c-.505852-.016523-.907377-.431378-.907377-.9375s.401525-.920977.907377-.9375h3.75v-3.75c0-.518043.419957-.938.938-.938s.938.419957.938.938v3.75h3.75c.518043,0,.938.419957.938.938s-.419957.938-.938.938v-.001Z" fill="url(#e7SIhaZMnkR2-fill)"/></svg>
