<?xml version="1.0" standalone="no"?>
<!DOCTYPE svg PUBLIC "-//W3C//DTD SVG 20010904//EN"
 "http://www.w3.org/TR/2001/REC-SVG-20010904/DTD/svg10.dtd">
<svg version="1.0" xmlns="http://www.w3.org/2000/svg"
 width="139.000000pt" height="20.000000pt" viewBox="0 0 139.000000 20.000000"
 preserveAspectRatio="xMidYMid meet">
<metadata>
Created by potrace 1.10, written by Peter Selinger 2001-2011
</metadata>
<g transform="translate(0.000000,20.000000) scale(0.100000,-0.100000)"
fill="#000000" stroke="none">
<path d="M85 155 c-90 -160 -86 -148 -49 -143 22 2 36 19 75 88 27 47 49 88
49 93 0 4 -11 7 -25 7 -18 0 -30 -11 -50 -45z"/>
<path d="M213 150 c-53 -22 -15 -53 79 -65 68 -8 90 -20 68 -35 -20 -14 -133
-7 -138 8 -4 14 -42 16 -42 2 0 -26 105 -46 170 -31 93 21 74 55 -43 72 -83
12 -103 32 -44 43 37 7 94 -2 103 -15 3 -5 15 -9 27 -9 20 0 20 1 4 17 -20 20
-147 29 -184 13z"/>
<path d="M442 151 c9 -24 109 -121 125 -121 17 0 45 26 112 103 l24 27 -24 0
c-17 -1 -37 -17 -68 -55 l-43 -55 -45 55 c-27 33 -53 55 -65 55 -11 0 -18 -4
-16 -9z"/>
<path d="M740 95 c0 -59 2 -65 20 -65 17 0 19 5 14 25 -6 24 -4 25 36 25 30 0
53 -7 74 -23 34 -26 73 -39 80 -28 3 4 -11 15 -30 26 -40 22 -43 31 -9 39 36
9 33 41 -6 55 -18 6 -65 11 -105 11 l-74 0 0 -65z m166 33 c12 -19 -28 -38
-83 -38 -50 0 -53 1 -53 25 0 24 2 25 64 25 38 0 68 -5 72 -12z"/>
<path d="M1020 95 l0 -65 86 0 c88 0 124 10 124 35 0 7 -10 17 -22 21 -19 6
-19 7 -5 16 25 13 21 37 -9 48 -14 6 -59 10 -100 10 l-74 0 0 -65z m155 34
c11 -17 -1 -22 -60 -27 -51 -4 -55 -3 -55 17 0 19 6 21 54 21 30 0 58 -5 61
-11z m-1 -45 c9 -3 16 -12 16 -19 0 -16 -32 -25 -87 -25 -39 0 -43 2 -43 25 0
23 3 25 49 25 27 0 56 -3 65 -6z"/>
</g>
</svg>
