<svg id="emyK5dZxwoC1" xmlns="http://www.w3.org/2000/svg" xmlns:xlink="http://www.w3.org/1999/xlink" viewBox="0 0 40 41" shape-rendering="geometricPrecision" text-rendering="geometricPrecision" width="40" height="41" style="background-color:transparent"><defs><radialGradient id="emyK5dZxwoC2-fill" cx="0" cy="0" r="0.5" spreadMethod="pad" gradientUnits="objectBoundingBox" gradientTransform="translate(0.5 0.5)"><stop id="emyK5dZxwoC2-fill-0" offset="0%" stop-color="#7fd86e"/><stop id="emyK5dZxwoC2-fill-1" offset="46.0191%" stop-color="#31d35c"/></radialGradient></defs><path d="M37.5,20.5c.008399,1.050892-.649871,1.991737-1.64,2.344l-9.913,3.604-3.603,9.911c-.363516.980204-1.298561,1.630711-2.344,1.630711s-1.980484-.650507-2.344-1.630711l-3.604-9.922-9.911-3.593c-.980204-.363516-1.630711-1.298561-1.630711-2.344s.650507-1.980484,1.630711-2.344l9.921-3.604l3.594-9.911c.363516-.980204,1.298561-1.630711,2.344-1.630711s1.980484.650507,2.344,1.630711l3.604,9.921l9.911,3.594c.990523.351925,1.64925,1.292849,1.641,2.344Z" transform="matrix(-1 0 0-1 40.010372 41.000002)" fill="url(#emyK5dZxwoC2-fill)" stroke="rgba(43,218,173,0)"/></svg>
